<?xml version="1.0" standalone="no"?>
<!DOCTYPE svg PUBLIC "-//W3C//DTD SVG 1.1//EN" "http://www.w3.org/Graphics/SVG/1.1/DTD/svg11.dtd" >
<svg xmlns="http://www.w3.org/2000/svg" xmlns:xlink="http://www.w3.org/1999/xlink" version="1.1">
<metadata>
Created by FontForge 20190801 at Thu Mar 20 13:31:43 2014
 By www-data
Aurebesh (c) (Neale Davidson). 2013. All Rights Reserved
</metadata>
<defs>
<font id="AurebeshBold" horiz-adv-x="1650" >
  <font-face 
    font-family="AurebeshBold"
    font-weight="700"
    font-stretch="normal"
    units-per-em="2048"
    panose-1="2 0 5 0 0 0 0 0 0 0"
    ascent="1638"
    descent="-410"
    x-height="1470"
    cap-height="1470"
    bbox="-50 -420 2085 1920"
    underline-thickness="150"
    underline-position="-292"
    unicode-range="U+001D-F002"
  />
<missing-glyph 
d="M0 200v1100q0 200 200 200h1100q200 0 200 -200v-1100q0 -200 -200 -200h-1100q-200 0 -200 200zM1475 201v1099q0 175 -175 175h-1100q-174 0 -175 -175v-1100q1 -175 175 -175h1101q174 0 174 176z" />
    <glyph glyph-name=".notdef" 
d="M0 200v1100q0 200 200 200h1100q200 0 200 -200v-1100q0 -200 -200 -200h-1100q-200 0 -200 200zM1475 201v1099q0 175 -175 175h-1100q-174 0 -175 -175v-1100q1 -175 175 -175h1101q174 0 174 176z" />
    <glyph glyph-name=".null" horiz-adv-x="0" 
 />
    <glyph glyph-name=".null" horiz-adv-x="0" 
 />
    <glyph glyph-name="nonmarkingreturn" horiz-adv-x="508" 
 />
    <glyph glyph-name="space" unicode=" " horiz-adv-x="1187" 
 />
    <glyph glyph-name="space" unicode="&#xa0;" horiz-adv-x="1187" 
 />
    <glyph glyph-name="exclam" unicode="!" horiz-adv-x="700" 
d="M575 1345v-304l-600 -436v304zM575 845v-304l-600 -436v304z" />
    <glyph glyph-name="quotedbl" unicode="&#x22;" horiz-adv-x="1000" 
d="M-25 680v790h250v-464l387 464h285l-659 -790h-263z" />
    <glyph glyph-name="numbersign" unicode="#" horiz-adv-x="1550" 
d="M-25 1070h400v400h250v-640h-650v240zM-25 620h650v-640h-250v400h-400v240zM775 830v640h250v-400h400v-240h-650zM1425 380h-400v-400h-250v640h650v-240z" />
    <glyph glyph-name="dollar" unicode="$" horiz-adv-x="1550" 
d="M175 1031h-200v239h200v200h250v-200h150v200h250v-200h600v-225l-761 -1065h-307l750 1050h-282v-200h-250v200l-150 1v-201h-250v201z" />
    <glyph glyph-name="percent" unicode="%" horiz-adv-x="1750" 
d="M350 670h100q124 0 124 280t-125 280h-100q-113 0 -124 -230q0 -330 125 -330zM275 1070h250v-240h-250v240zM1150 220h100q124 0 124 280t-125 280h-100q-113 0 -124 -230q0 -330 125 -330zM1075 620h250v-240h-250v240zM825 173v-193h-250v452l2 1q0 1 -1 1
q-4 0 -23 -4h-306q-272 54 -272 570q13 419 271 470h306q190 -38 223 -277v277h250v-451q-3 -1 -3 -2h2q5 0 22 3h306q272 -54 273 -520q0 -466 -272 -520h-306q-156 31 -222 193z" />
    <glyph glyph-name="ampersand" unicode="&#x26;" horiz-adv-x="1750" 
d="M456 -20l-488 1490h276l356 -1086l356 1086h669v-240h-200v-1010h200v-240h-1169zM1175 220v1010l-348 -1010h348z" />
    <glyph glyph-name="quotesingle" unicode="'" horiz-adv-x="550" 
d="M425 1670v-790h-250v550h-200v240h450z" />
    <glyph glyph-name="parenleft" unicode="(" horiz-adv-x="550" 
d="M425 605h-200v-625h-250v1490h250v-625h200v-240z" />
    <glyph glyph-name="parenright" unicode=")" horiz-adv-x="550" 
d="M-25 845h200v625h250v-1490h-250v625h-200v240z" />
    <glyph glyph-name="asterisk" unicode="*" horiz-adv-x="950" 
d="M686 1170h139v-240h-131l88 -88l-173 -174l-84 84v-122h-250v129l-91 -91l-173 174l88 88h-124v240h132l-96 96l173 173l91 -91v122h250v-115l84 84l173 -173z" />
    <glyph glyph-name="plus" unicode="+" horiz-adv-x="1250" 
d="M675 605v-450h-250v450h-450v240h450v450h250v-450h450v-240h-450z" />
    <glyph glyph-name="comma" unicode="," horiz-adv-x="350" 
d="M-25 -20v640h250v-640h-250z" />
    <glyph glyph-name="hyphen" unicode="-" horiz-adv-x="1250" 
d="M1125 605h-1150v240h1150v-240z" />
    <glyph glyph-name="hyphen" unicode="&#xad;" horiz-adv-x="1250" 
d="M1125 605h-1150v240h1150v-240z" />
    <glyph glyph-name="period" unicode="." horiz-adv-x="750" 
d="M-25 -20v640h250v-640h-250zM375 -20v640h250l-2 -640h-248z" />
    <glyph glyph-name="slash" unicode="/" horiz-adv-x="550" 
d="M175 953v517h250v-523l-200 -450v-517h-250v523z" />
    <glyph glyph-name="zero" unicode="0" 
d="M350 1230q-125 0 -125 -280v-450q0 -280 125 -280h800q125 0 125 280v450q0 280 -125 280h-800zM247 -20q-272 54 -272 520v450q0 466 272 520h1006q272 -54 272 -520v-450q0 -466 -272 -520h-1006zM625 845h250v-240h-250v240z" />
    <glyph glyph-name="one" unicode="1" horiz-adv-x="1550" 
d="M825 1470v-1250h600v-240h-1450v240h600v1010h-600v240h850z" />
    <glyph glyph-name="two" unicode="2" horiz-adv-x="1550" 
d="M349 1230q-113 0 -125 -250h-250q14 439 272 490h906q272 -54 273 -520q0 -466 -272 -520h-1178v240h1075q124 0 124 280t-125 280h-700zM-25 220h1450v-240h-1450v240z" />
    <glyph glyph-name="three" unicode="3" horiz-adv-x="1550" 
d="M349 220h701q125 0 125 280v450q0 280 -125 280h-701q-113 0 -125 -250h-250q14 439 272 490h907q272 -54 272 -520v-450q0 -466 -272 -520h-907q-258 51 -272 490h250q12 -250 125 -250zM1025 870v-240h-1050v240h1050z" />
    <glyph glyph-name="four" unicode="4" horiz-adv-x="1550" 
d="M-25 1470h250v-600h950v600h250v-1490h-250v650h-1200v840z" />
    <glyph glyph-name="five" unicode="5" horiz-adv-x="1550" 
d="M1049 220q125 0 125 280t-124 280h-1075v240h1178q272 -54 272 -520q-1 -466 -273 -520h-906q-258 51 -272 490h250q12 -250 125 -250h700zM-25 1470h1450v-240h-1450v240z" />
    <glyph glyph-name="six" unicode="6" horiz-adv-x="1550" 
d="M-25 1470h1450v-240h-1450v240zM225 450q11 -230 124 -230h700q125 0 125 280t-124 280h-700q-125 0 -125 -330zM-25 450q0 516 272 570h906q272 -54 272 -520q-1 -466 -273 -520h-906q-258 51 -271 470z" />
    <glyph glyph-name="seven" unicode="7" horiz-adv-x="1550" 
d="M1425 1470v-1490h-250v1250h-1200v240h1450z" />
    <glyph glyph-name="eight" unicode="8" 
d="M350 605q-125 0 -125 -180q0 -205 125 -205h800q125 0 125 205q0 180 -125 180h-800zM350 1230q-125 0 -125 -180q0 -205 125 -205h800q125 0 125 205q0 180 -125 180h-800zM1456 728q69 -96 69 -303q0 -418 -274 -445h-1002q-274 27 -274 445q0 207 69 303
q-69 101 -69 322q0 393 274 420h1002q274 -27 274 -420q0 -221 -69 -322z" />
    <glyph glyph-name="nine" unicode="9" horiz-adv-x="1550" 
d="M-25 220h1450v-240h-1450v240zM350 670h700q124 0 124 280t-125 280h-700q-113 0 -124 -230q0 -330 125 -330zM246 1470h906q272 -54 273 -520q0 -466 -272 -520h-906q-272 54 -272 570q13 419 271 470z" />
    <glyph glyph-name="colon" unicode=":" horiz-adv-x="850" 
d="M404 220l-450 550h309l462 -564v-226h-750v240h429z" />
    <glyph glyph-name="semicolon" unicode=";" horiz-adv-x="350" 
d="M225 -20h-250v1490h250v-1490z" />
    <glyph glyph-name="semicolon" unicode="&#x37e;" horiz-adv-x="350" 
d="M225 -20h-250v1490h250v-1490z" />
    <glyph glyph-name="less" unicode="&#x3c;" horiz-adv-x="1250" 
d="M-25 863l1150 418v-244l-859 -312l859 -312v-244l-1150 418v276z" />
    <glyph glyph-name="equal" unicode="=" horiz-adv-x="1250" 
d="M1125 380h-1150v240h1150v-240zM1125 830h-1150v240h1150v-240z" />
    <glyph glyph-name="greater" unicode="&#x3e;" horiz-adv-x="1250" 
d="M1125 587l-1150 -418v244l859 312l-859 312v244l1150 -418v-276z" />
    <glyph glyph-name="question" unicode="?" horiz-adv-x="700" 
d="M175 220q150 0 150 280v450q0 280 -100 280v-250h-250v490h328q272 -54 272 -520v-450q0 -466 -272 -520h-128v240z" />
    <glyph glyph-name="at" unicode="@" horiz-adv-x="1550" 
d="M1450 1470l-620 -665h-455v240h367l172 185h-564q-125 0 -125 -280v-450q0 -280 125 -280h564l-172 185h-367v240h455l620 -665h-1203q-272 54 -272 520v450q0 466 272 520h1203z" />
    <glyph glyph-name="A" unicode="A" horiz-adv-x="1900" 
d="M570 805l-620 665h312l396 -425h867v425h250v-665h-1205zM1775 645v-665h-250v425h-867l-396 -425h-312l620 665h1205z" />
    <glyph glyph-name="B" unicode="B" horiz-adv-x="1950" 
d="M1475 845v-240h-1200v240h1200zM474 1230l-212 -225h-312l438 465h974l438 -465h-312l-212 225h-802zM388 -20l-438 465h312l212 -225h802l212 225h312l-438 -465h-974z" />
    <glyph glyph-name="C" unicode="C" horiz-adv-x="1150" 
d="M625 970v-490h-250v490h250zM1025 1470v-990h-250v990h250zM225 970v-990h-250v990h250z" />
    <glyph glyph-name="D" unicode="D" horiz-adv-x="1550" 
d="M1225 845v-240h-508l425 -625h-307l-431 634l-429 631v225h1450v-239l-1133 -1l262 -385h671z" />
    <glyph glyph-name="E" unicode="E" horiz-adv-x="1750" 
d="M425 1230v-1250h-250v1250h-200v240h669l356 -1086l356 1086h276l-488 -1490h-288z" />
    <glyph glyph-name="F" unicode="F" horiz-adv-x="1750" 
d="M925 620v-400h450v385h-175q-160 0 -275 15zM-25 -20v240h700v445q-428 105 -700 429v323q317 -391 700 -500v553h250v-606q120 -19 275 -19h425v-865h-1650z" />
    <glyph glyph-name="G" unicode="G" horiz-adv-x="2000" 
d="M632 -20l-667 1490h1461l-1 -220v-220h-250v200h-800l453 -1010h747v1250h250v-1490h-1193z" />
    <glyph glyph-name="H" unicode="H" horiz-adv-x="1550" 
d="M1225 605h-1050v240h1050v-240zM1425 220v-240h-1450v240h1450zM-25 1230v240h1450v-240h-1450z" />
    <glyph glyph-name="I" unicode="I" horiz-adv-x="700" 
d="M580 1153l-124 -186l-231 185v-1172h-250v1490h236z" />
    <glyph glyph-name="J" unicode="J" horiz-adv-x="1750" 
d="M266 1470q350 -625 1084 -625h275v-240h-275q-493 0 -778 186l256 -571h797v-240h-993l-667 1490h301z" />
    <glyph glyph-name="K" unicode="K" horiz-adv-x="1950" 
d="M1576 470h250q-14 -439 -272 -490h-1307q-272 54 -272 520v450q0 466 272 520h1307q258 -51 272 -490h-250q-12 250 -125 250h-1101q-125 0 -125 -280v-450q0 -280 125 -280h1101q113 0 125 250z" />
    <glyph glyph-name="L" unicode="L" horiz-adv-x="1550" 
d="M-25 -20v1490h250v-1194l973 649l244 -123l-1233 -822h-234z" />
    <glyph glyph-name="M" unicode="M" horiz-adv-x="1500" 
d="M718 1470l667 -1490h-1410l1 240h999l-453 1010h-547v240h743z" />
    <glyph glyph-name="N" unicode="N" horiz-adv-x="1750" 
d="M1256 220q125 0 125 280v450q0 280 -150 280v240h128q272 -54 272 -520v-450q0 -466 -272 -520h-397l-362 1087l-356 -1087h-276l488 1490h288l431 -1250h81z" />
    <glyph glyph-name="O" unicode="O" horiz-adv-x="2100" 
d="M728 1230l-453 -1010h1400l-453 1010h-494zM83 -20l-110 220l559 1270h886l559 -1270l-110 -220h-1784z" />
    <glyph glyph-name="P" unicode="P" horiz-adv-x="1550" 
d="M225 220h825q125 0 125 280v450q0 280 -100 280v-250h-250v490h328q272 -54 272 -520v-450q0 -466 -272 -520h-1178v1490h250v-1250z" />
    <glyph glyph-name="Q" unicode="Q" horiz-adv-x="1750" 
d="M774 220h475q125 0 125 280v450q0 280 -125 280h-900q-113 0 -125 -250h-250q14 439 272 490h1106q272 -54 272 -520v-450q0 -466 -272 -520h-578v240z" />
    <glyph glyph-name="R" unicode="R" horiz-adv-x="1550" 
d="M292 1230l850 -1250h-307l-860 1265v225h1450v-239z" />
    <glyph glyph-name="S" unicode="S" horiz-adv-x="1750" 
d="M1236 1470h309l-1181 -1490h-389v1490h250v-1275zM741 -29l-124 186l892 472l124 -186z" />
    <glyph glyph-name="T" unicode="T" horiz-adv-x="1750" 
d="M675 1470h250v-1144l413 444h312l-738 -792h-224l-738 792h312l413 -444v1144z" />
    <glyph glyph-name="U" unicode="U" horiz-adv-x="1800" 
d="M662 1470l438 -465h-312l-212 225h-351v-880q0 -130 275 -130h650q275 0 275 130v1120h250v-1221q-54 -269 -525 -269h-650q-471 0 -525 269v1221h687z" />
    <glyph glyph-name="V" unicode="V" horiz-adv-x="1750" 
d="M925 -20h-250v712l-20 21l-705 757h312l538 -578l538 578h312l-705 -757l-20 -21v-712z" />
    <glyph glyph-name="W" unicode="W" horiz-adv-x="2000" 
d="M350 1230q-125 0 -125 -280v-450q0 -280 125 -280h1150q125 0 125 280v450q0 280 -125 280h-1150zM247 -20q-272 54 -272 520v450q0 466 272 520h1356q272 -54 272 -520v-450q0 -466 -272 -520h-1356z" />
    <glyph glyph-name="X" unicode="X" 
d="M33 -20l-60 120l609 1370h336l609 -1370l-60 -120h-1434zM1175 220l-425 948l-425 -948h850z" />
    <glyph glyph-name="Y" unicode="Y" horiz-adv-x="1750" 
d="M1027 1230l-135 -300h-302l243 540h802l-667 -1490h-336l-667 1490h303l532 -1188l425 948h-198z" />
    <glyph glyph-name="Z" unicode="Z" horiz-adv-x="1950" 
d="M1162 1270l540 -540h-314l-300 300h-863v-810h1350v200h250v-440h-1850v1490h250v-200h937z" />
    <glyph glyph-name="bracketleft" unicode="[" horiz-adv-x="550" 
d="M225 80v-100h-250v1490h250v-100h200v-240h-200v-810h200v-240h-200z" />
    <glyph glyph-name="backslash" unicode="\" horiz-adv-x="550" 
d="M425 503v-523h-250v517l-200 450v523h250v-517z" />
    <glyph glyph-name="bracketright" unicode="]" horiz-adv-x="550" 
d="M-25 80v240h200v810h-200v240h200v100h250v-1490h-250v100h-200z" />
    <glyph glyph-name="asciicircum" unicode="^" horiz-adv-x="650" 
d="M364 1770l180 -240h-259l-35 53l-35 -53h-259l180 240h228z" />
    <glyph glyph-name="underscore" unicode="_" horiz-adv-x="1550" 
d="M1425 -180v-240h-1450v240h1450z" />
    <glyph glyph-name="grave" unicode="`" horiz-adv-x="350" 
d="M125 1770h100v-240h-250v270q0 120 125 120h75v-140q-50 0 -50 -10z" />
    <glyph glyph-name="a" unicode="a" horiz-adv-x="1900" 
d="M-25 805v665h250v-425h867l396 425h312l-620 -665h-1205zM1180 645l620 -665h-312l-396 425h-867v-425h-250v665h1205z" />
    <glyph glyph-name="b" unicode="b" horiz-adv-x="1950" 
d="M1475 845v-240h-1200v240h1200zM474 1230l-212 -225h-312l438 465h974l438 -465h-312l-212 225h-802zM388 -20l-438 465h312l212 -225h802l212 225h312l-438 -465h-974z" />
    <glyph glyph-name="c" unicode="c" horiz-adv-x="1150" 
d="M625 970v-490h-250v490h250zM225 1470v-990h-250v990h250zM1025 970v-990h-250v990h250z" />
    <glyph glyph-name="d" unicode="d" horiz-adv-x="1550" 
d="M846 845l262 385l-1133 1v239h1450v-225l-429 -631l-431 -634h-307l425 625h-508v240h671z" />
    <glyph glyph-name="e" unicode="e" horiz-adv-x="1750" 
d="M1175 1230l-431 -1250h-288l-488 1490h276l356 -1086l356 1086h669v-240h-200v-1250h-250v1250z" />
    <glyph glyph-name="f" unicode="f" horiz-adv-x="1750" 
d="M400 605h-175v-385h450v400q-115 -15 -275 -15zM-25 -20v865h425q155 0 275 19v606h250v-553q383 109 700 500v-323q-272 -324 -700 -429v-445h700v-240h-1650z" />
    <glyph glyph-name="g" unicode="g" horiz-adv-x="2000" 
d="M-25 -20v1490h250v-1250h747l453 1010h-800v-200h-250v220l-1 220h1461l-667 -1490h-1193z" />
    <glyph glyph-name="h" unicode="h" horiz-adv-x="1550" 
d="M175 845h1050v-240h-1050v240zM1425 220v-240h-1450v240h1450zM-25 1230v240h1450v-240h-1450z" />
    <glyph glyph-name="i" unicode="i" horiz-adv-x="700" 
d="M339 1470h236v-1490h-250v1172l-231 -185l-124 186z" />
    <glyph glyph-name="j" unicode="j" horiz-adv-x="1750" 
d="M1635 1470l-667 -1490h-993v240h797l256 571q-285 -186 -778 -186h-275v240h275q734 0 1084 625h301z" />
    <glyph glyph-name="k" unicode="k" horiz-adv-x="1950" 
d="M349 220h1101q125 0 125 280v450q0 280 -125 280h-1101q-113 0 -125 -250h-250q14 439 272 490h1307q272 -54 272 -520v-450q0 -466 -272 -520h-1307q-258 51 -272 490h250q12 -250 125 -250z" />
    <glyph glyph-name="l" unicode="l" horiz-adv-x="1550" 
d="M1191 -20l-1233 822l244 123l973 -649v1194h250v-1490h-234z" />
    <glyph glyph-name="m" unicode="m" horiz-adv-x="1500" 
d="M1375 1470v-240h-547l-453 -1010h999l1 -240h-1410l667 1490h743z" />
    <glyph glyph-name="n" unicode="n" horiz-adv-x="1750" 
d="M431 220l431 1250h288l488 -1490h-276l-356 1087l-362 -1087h-397q-272 54 -272 520v450q0 466 272 520h128v-240q-150 0 -150 -280v-450q0 -280 125 -280h81z" />
    <glyph glyph-name="o" unicode="o" horiz-adv-x="2100" 
d="M728 1230l-453 -1010h1400l-453 1010h-494zM83 -20l-110 220l559 1270h886l559 -1270l-110 -220h-1784z" />
    <glyph glyph-name="p" unicode="p" horiz-adv-x="1550" 
d="M1175 1470h250v-1490h-1178q-272 54 -272 520v450q0 466 272 520h328v-490h-250v250q-100 0 -100 -280v-450q0 -280 125 -280h825v1250z" />
    <glyph glyph-name="q" unicode="q" horiz-adv-x="1750" 
d="M825 -20h-578q-272 54 -272 520v450q0 466 272 520h1106q258 -51 272 -490h-250q-12 250 -125 250h-900q-125 0 -125 -280v-450q0 -280 125 -280h475v-240z" />
    <glyph glyph-name="r" unicode="r" horiz-adv-x="1550" 
d="M-25 1231v239h1450v-225l-860 -1265h-307l850 1250z" />
    <glyph glyph-name="s" unicode="s" horiz-adv-x="1750" 
d="M1375 195v1275h250v-1490h-389l-1181 1490h309zM-33 443l124 186l892 -472l-124 -186z" />
    <glyph glyph-name="t" unicode="t" horiz-adv-x="1750" 
d="M925 326l413 444h312l-738 -792h-224l-738 792h312l413 -444v1144h250v-1144z" />
    <glyph glyph-name="u" unicode="u" horiz-adv-x="1800" 
d="M1675 1470v-1221q-54 -269 -525 -269h-650q-471 0 -525 269v1221h250v-1120q0 -130 275 -130h650q275 0 275 130v880h-351l-212 -225h-312l438 465h687z" />
    <glyph glyph-name="v" unicode="v" horiz-adv-x="1750" 
d="M675 692l-20 21l-705 757h312l538 -578l538 578h312l-705 -757l-20 -21v-712h-250v712z" />
    <glyph glyph-name="w" unicode="w" horiz-adv-x="2000" 
d="M350 1230q-125 0 -125 -280v-450q0 -280 125 -280h1150q125 0 125 280v450q0 280 -125 280h-1150zM247 -20q-272 54 -272 520v450q0 466 272 520h1356q272 -54 272 -520v-450q0 -466 -272 -520h-1356z" />
    <glyph glyph-name="x" unicode="x" 
d="M33 -20l-60 120l609 1370h336l609 -1370l-60 -120h-1434zM1175 220l-425 948l-425 -948h850z" />
    <glyph glyph-name="y" unicode="y" horiz-adv-x="1750" 
d="M375 1230l425 -948l532 1188h303l-667 -1490h-336l-667 1490h802l243 -540h-302l-135 300h-198z" />
    <glyph glyph-name="z" unicode="z" horiz-adv-x="1950" 
d="M1575 1270v200h250v-1490h-1850v440h250v-200h1350v810h-863l-300 -300h-314l540 540h937z" />
    <glyph glyph-name="braceleft" unicode="{" horiz-adv-x="1637" 
d="M372 1376q-198 -231 -223 -385q-10 -64 -11 -154v-5q0 -154 113 -248q64 -52 136 -67q21 -4 39 -4q98 0 161.5 66.5t63.5 164.5q0 200 -58 304q-39 72 -128 161l93 93l139 -186v93l-93 139l140 139l140 -139l-94 -139v-93l140 186l92 -93l-87 -88q-79 -87 -87 -181
q-7 -89 -11 -196v-13q0 -90 51 -153q56 -71 153 -71q34 0 75 14q145 46 208 205q26 66 26 111v9q0 147 -66 281q-51 106 -168 249q158 -103 262 -272q109 -180 109 -360q0 -282 -231 -513t-512 -231t-512.5 231.5t-231.5 512.5q0 248 178 463q82 99 194 169z" />
    <glyph glyph-name="bar" unicode="|" 
d="M0 200v1100q0 200 200 200h1100q200 0 200 -200v-1100q0 -200 -200 -200h-1100q-200 0 -200 200zM1475 201v1099q0 175 -175 175h-1100q-174 0 -175 -175v-1100q1 -175 175 -175h1101q174 0 174 176z" />
    <glyph glyph-name="braceright" unicode="}" 
d="M1333 472l49 -29q68 139 68 307t-68 307l-49 -29q18 -38 32 -78l-47 -15q27 -87 27 -185t-27 -185l47 -15q-14 -40 -32 -78zM800 102v-50q258 16 445 203q49 49 86 102l-48 28q-26 -38 -55 -72l-38 34q-10 -11 -20 -21q-130 -130 -299 -164l10 -49q-39 -8 -81 -11z
M1283 1115l48 28q-37 53 -86 102q-187 187 -445 203v-50q42 -3 81 -11l-10 -49q169 -34 299 -163l20 -22l38 34q29 -34 55 -72zM210 381l-41 -24q37 -53 86 -102q187 -187 445 -203v49q-47 3 -91 12l10 49q-169 34 -298 164q-11 10 -21 21l-38 -34q-28 32 -52 68zM160 1033
l-42 24q-68 -139 -68 -307t68 -307l42 24q-21 41 -35 83l47 15q-27 87 -27 185t27 185l-47 15q14 42 35 83zM700 1399v49q-258 -16 -445 -203q-49 -49 -86 -102l41 -24q24 36 52 68l38 -34q10 11 21 22q129 129 298 163l-10 49q44 9 91 12zM750 0q-311 0 -530.5 219.5
t-219.5 530.5t219.5 530.5t530.5 219.5t530.5 -219.5t219.5 -530.5t-219.5 -530.5t-530.5 -219.5zM454 750q0 -54 17 -102l-188 -67q15 -41 38 -81t51 -74l153 130q8 -9 17 -18q68 -68 158 -84l-36 -197q44 -7 90 -7t90 7l-36 197q90 16 158 84q9 9 17 18l153 -130
q28 34 51 74t38 81l-188 67q17 48 17 102t-17 102l188 67q-15 41 -38 81t-51 74l-153 -130q-8 9 -17 18q-68 68 -158 84l36 197q-44 7 -90 7t-90 -7l36 -197q-90 -16 -158 -84q-9 -9 -17 -18l-153 130q-28 -34 -51 -74t-38 -81l188 -67q-17 -48 -17 -102z" />
    <glyph glyph-name="asciitilde" unicode="~" 
d="M0 200v1100q0 200 200 200h1100q200 0 200 -200v-1100q0 -200 -200 -200h-1100q-200 0 -200 200zM1475 201v1099q0 175 -175 175h-1100q-174 0 -175 -175v-1100q1 -175 175 -175h1101q174 0 174 176z" />
    <glyph glyph-name="exclamdown" unicode="&#xa1;" horiz-adv-x="700" 
d="M575 909v-304l-600 436v304zM575 409v-304l-600 436v304z" />
    <glyph glyph-name="cent" unicode="&#xa2;" horiz-adv-x="1550" 
d="M175 1031h-200v239h200v200h250v-200h150v200h250v-200h600v-225l-761 -1065h-307l750 1050h-282v-200h-250v200l-150 1v-201h-250v201z" />
    <glyph glyph-name="sterling" unicode="&#xa3;" horiz-adv-x="1550" 
d="M175 1031h-200v239h200v200h250v-200h150v200h250v-200h600v-225l-761 -1065h-307l750 1050h-282v-200h-250v200l-150 1v-201h-250v201z" />
    <glyph glyph-name="currency" unicode="&#xa4;" horiz-adv-x="1550" 
d="M175 1031h-200v239h200v200h250v-200h150v200h250v-200h600v-225l-761 -1065h-307l750 1050h-282v-200h-250v200l-150 1v-201h-250v201z" />
    <glyph glyph-name="yen" unicode="&#xa5;" horiz-adv-x="1550" 
d="M175 1031h-200v239h200v200h250v-200h150v200h250v-200h600v-225l-761 -1065h-307l750 1050h-282v-200h-250v200l-150 1v-201h-250v201z" />
    <glyph glyph-name="brokenbar" unicode="&#xa6;" 
d="M0 200v1100q0 200 200 200h1100q200 0 200 -200v-1100q0 -200 -200 -200h-1100q-200 0 -200 200zM1475 201v1099q0 175 -175 175h-1100q-174 0 -175 -175v-1100q1 -175 175 -175h1101q174 0 174 176z" />
    <glyph glyph-name="section" unicode="&#xa7;" 
d="M0 200v1100q0 200 200 200h1100q200 0 200 -200v-1100q0 -200 -200 -200h-1100q-200 0 -200 200zM1475 201v1099q0 175 -175 175h-1100q-174 0 -175 -175v-1100q1 -175 175 -175h1101q174 0 174 176z" />
    <glyph glyph-name="dieresis" unicode="&#xa8;" 
d="M0 200v1100q0 200 200 200h1100q200 0 200 -200v-1100q0 -200 -200 -200h-1100q-200 0 -200 200zM1475 201v1099q0 175 -175 175h-1100q-174 0 -175 -175v-1100q1 -175 175 -175h1101q174 0 174 176z" />
    <glyph glyph-name="copyright" unicode="&#xa9;" 
d="M0 200v1100q0 200 200 200h1100q200 0 200 -200v-1100q0 -200 -200 -200h-1100q-200 0 -200 200zM1475 201v1099q0 175 -175 175h-1100q-174 0 -175 -175v-1100q1 -175 175 -175h1101q174 0 174 176z" />
    <glyph glyph-name="ordfeminine" unicode="&#xaa;" 
d="M0 200v1100q0 200 200 200h1100q200 0 200 -200v-1100q0 -200 -200 -200h-1100q-200 0 -200 200zM1475 201v1099q0 175 -175 175h-1100q-174 0 -175 -175v-1100q1 -175 175 -175h1101q174 0 174 176z" />
    <glyph glyph-name="guillemotleft" unicode="&#xab;" 
d="M0 200v1100q0 200 200 200h1100q200 0 200 -200v-1100q0 -200 -200 -200h-1100q-200 0 -200 200zM1475 201v1099q0 175 -175 175h-1100q-174 0 -175 -175v-1100q1 -175 175 -175h1101q174 0 174 176z" />
    <glyph glyph-name="logicalnot" unicode="&#xac;" 
d="M0 200v1100q0 200 200 200h1100q200 0 200 -200v-1100q0 -200 -200 -200h-1100q-200 0 -200 200zM1475 201v1099q0 175 -175 175h-1100q-174 0 -175 -175v-1100q1 -175 175 -175h1101q174 0 174 176z" />
    <glyph glyph-name="registered" unicode="&#xae;" 
d="M0 200v1100q0 200 200 200h1100q200 0 200 -200v-1100q0 -200 -200 -200h-1100q-200 0 -200 200zM1475 201v1099q0 175 -175 175h-1100q-174 0 -175 -175v-1100q1 -175 175 -175h1101q174 0 174 176z" />
    <glyph glyph-name="macron" unicode="&#xaf;" 
d="M0 200v1100q0 200 200 200h1100q200 0 200 -200v-1100q0 -200 -200 -200h-1100q-200 0 -200 200zM1475 201v1099q0 175 -175 175h-1100q-174 0 -175 -175v-1100q1 -175 175 -175h1101q174 0 174 176z" />
    <glyph glyph-name="degree" unicode="&#xb0;" 
d="M0 200v1100q0 200 200 200h1100q200 0 200 -200v-1100q0 -200 -200 -200h-1100q-200 0 -200 200zM1475 201v1099q0 175 -175 175h-1100q-174 0 -175 -175v-1100q1 -175 175 -175h1101q174 0 174 176z" />
    <glyph glyph-name="plusminus" unicode="&#xb1;" 
d="M0 200v1100q0 200 200 200h1100q200 0 200 -200v-1100q0 -200 -200 -200h-1100q-200 0 -200 200zM1475 201v1099q0 175 -175 175h-1100q-174 0 -175 -175v-1100q1 -175 175 -175h1101q174 0 174 176z" />
    <glyph glyph-name="uni00B2" unicode="&#xb2;" 
d="M0 200v1100q0 200 200 200h1100q200 0 200 -200v-1100q0 -200 -200 -200h-1100q-200 0 -200 200zM1475 201v1099q0 175 -175 175h-1100q-174 0 -175 -175v-1100q1 -175 175 -175h1101q174 0 174 176z" />
    <glyph glyph-name="uni00B3" unicode="&#xb3;" 
d="M0 200v1100q0 200 200 200h1100q200 0 200 -200v-1100q0 -200 -200 -200h-1100q-200 0 -200 200zM1475 201v1099q0 175 -175 175h-1100q-174 0 -175 -175v-1100q1 -175 175 -175h1101q174 0 174 176z" />
    <glyph glyph-name="acute" unicode="&#xb4;" 
d="M0 200v1100q0 200 200 200h1100q200 0 200 -200v-1100q0 -200 -200 -200h-1100q-200 0 -200 200zM1475 201v1099q0 175 -175 175h-1100q-174 0 -175 -175v-1100q1 -175 175 -175h1101q174 0 174 176z" />
    <glyph glyph-name="mu" unicode="&#xb5;" 
d="M0 200v1100q0 200 200 200h1100q200 0 200 -200v-1100q0 -200 -200 -200h-1100q-200 0 -200 200zM1475 201v1099q0 175 -175 175h-1100q-174 0 -175 -175v-1100q1 -175 175 -175h1101q174 0 174 176z" />
    <glyph glyph-name="paragraph" unicode="&#xb6;" 
d="M0 200v1100q0 200 200 200h1100q200 0 200 -200v-1100q0 -200 -200 -200h-1100q-200 0 -200 200zM1475 201v1099q0 175 -175 175h-1100q-174 0 -175 -175v-1100q1 -175 175 -175h1101q174 0 174 176z" />
    <glyph glyph-name="periodcentered" unicode="&#xb7;" 
d="M0 200v1100q0 200 200 200h1100q200 0 200 -200v-1100q0 -200 -200 -200h-1100q-200 0 -200 200zM1475 201v1099q0 175 -175 175h-1100q-174 0 -175 -175v-1100q1 -175 175 -175h1101q174 0 174 176z" />
    <glyph glyph-name="periodcentered" unicode="&#x2219;" 
d="M0 200v1100q0 200 200 200h1100q200 0 200 -200v-1100q0 -200 -200 -200h-1100q-200 0 -200 200zM1475 201v1099q0 175 -175 175h-1100q-174 0 -175 -175v-1100q1 -175 175 -175h1101q174 0 174 176z" />
    <glyph glyph-name="cedilla" unicode="&#xb8;" 
d="M0 200v1100q0 200 200 200h1100q200 0 200 -200v-1100q0 -200 -200 -200h-1100q-200 0 -200 200zM1475 201v1099q0 175 -175 175h-1100q-174 0 -175 -175v-1100q1 -175 175 -175h1101q174 0 174 176z" />
    <glyph glyph-name="uni00B9" unicode="&#xb9;" 
d="M0 200v1100q0 200 200 200h1100q200 0 200 -200v-1100q0 -200 -200 -200h-1100q-200 0 -200 200zM1475 201v1099q0 175 -175 175h-1100q-174 0 -175 -175v-1100q1 -175 175 -175h1101q174 0 174 176z" />
    <glyph glyph-name="ordmasculine" unicode="&#xba;" 
d="M0 200v1100q0 200 200 200h1100q200 0 200 -200v-1100q0 -200 -200 -200h-1100q-200 0 -200 200zM1475 201v1099q0 175 -175 175h-1100q-174 0 -175 -175v-1100q1 -175 175 -175h1101q174 0 174 176z" />
    <glyph glyph-name="guillemotright" unicode="&#xbb;" 
d="M0 200v1100q0 200 200 200h1100q200 0 200 -200v-1100q0 -200 -200 -200h-1100q-200 0 -200 200zM1475 201v1099q0 175 -175 175h-1100q-174 0 -175 -175v-1100q1 -175 175 -175h1101q174 0 174 176z" />
    <glyph glyph-name="onequarter" unicode="&#xbc;" 
d="M0 200v1100q0 200 200 200h1100q200 0 200 -200v-1100q0 -200 -200 -200h-1100q-200 0 -200 200zM1475 201v1099q0 175 -175 175h-1100q-174 0 -175 -175v-1100q1 -175 175 -175h1101q174 0 174 176z" />
    <glyph glyph-name="onehalf" unicode="&#xbd;" 
d="M0 200v1100q0 200 200 200h1100q200 0 200 -200v-1100q0 -200 -200 -200h-1100q-200 0 -200 200zM1475 201v1099q0 175 -175 175h-1100q-174 0 -175 -175v-1100q1 -175 175 -175h1101q174 0 174 176z" />
    <glyph glyph-name="threequarters" unicode="&#xbe;" 
d="M0 200v1100q0 200 200 200h1100q200 0 200 -200v-1100q0 -200 -200 -200h-1100q-200 0 -200 200zM1475 201v1099q0 175 -175 175h-1100q-174 0 -175 -175v-1100q1 -175 175 -175h1101q174 0 174 176z" />
    <glyph glyph-name="questiondown" unicode="&#xbf;" horiz-adv-x="700" 
d="M375 -20h-128q-272 54 -272 520v450q0 466 272 520h328v-490h-250v250q-100 0 -100 -280v-450q0 -280 150 -280v-240z" />
    <glyph glyph-name="Agrave" unicode="&#xc0;" 
d="M0 200v1100q0 200 200 200h1100q200 0 200 -200v-1100q0 -200 -200 -200h-1100q-200 0 -200 200zM1475 201v1099q0 175 -175 175h-1100q-174 0 -175 -175v-1100q1 -175 175 -175h1101q174 0 174 176z" />
    <glyph glyph-name="Aacute" unicode="&#xc1;" 
d="M0 200v1100q0 200 200 200h1100q200 0 200 -200v-1100q0 -200 -200 -200h-1100q-200 0 -200 200zM1475 201v1099q0 175 -175 175h-1100q-174 0 -175 -175v-1100q1 -175 175 -175h1101q174 0 174 176z" />
    <glyph glyph-name="Acircumflex" unicode="&#xc2;" 
d="M0 200v1100q0 200 200 200h1100q200 0 200 -200v-1100q0 -200 -200 -200h-1100q-200 0 -200 200zM1475 201v1099q0 175 -175 175h-1100q-174 0 -175 -175v-1100q1 -175 175 -175h1101q174 0 174 176z" />
    <glyph glyph-name="Atilde" unicode="&#xc3;" 
d="M0 200v1100q0 200 200 200h1100q200 0 200 -200v-1100q0 -200 -200 -200h-1100q-200 0 -200 200zM1475 201v1099q0 175 -175 175h-1100q-174 0 -175 -175v-1100q1 -175 175 -175h1101q174 0 174 176z" />
    <glyph glyph-name="Adieresis" unicode="&#xc4;" 
d="M0 200v1100q0 200 200 200h1100q200 0 200 -200v-1100q0 -200 -200 -200h-1100q-200 0 -200 200zM1475 201v1099q0 175 -175 175h-1100q-174 0 -175 -175v-1100q1 -175 175 -175h1101q174 0 174 176z" />
    <glyph glyph-name="Aring" unicode="&#xc5;" horiz-adv-x="1950" 
d="M1575 950q0 280 -125 280h-1100q-125 0 -125 -280v-105h1000v-240h-1000v-105q0 -280 125 -280h1100q125 0 125 280v145h250v-145q0 -466 -272 -520h-1306q-272 54 -272 520v450q0 466 272 520h1306q272 -54 272 -520v-145h-250v145z" />
    <glyph glyph-name="AE" unicode="&#xc6;" horiz-adv-x="1950" 
d="M1575 950q0 280 -125 280h-1100q-125 0 -125 -280v-105h1000v-240h-1000v-105q0 -280 125 -280h1100q125 0 125 280v145h250v-145q0 -466 -272 -520h-1306q-272 54 -272 520v450q0 466 272 520h1306q272 -54 272 -520v-145h-250v145z" />
    <glyph glyph-name="Ccedilla" unicode="&#xc7;" horiz-adv-x="2150" 
d="M1975 1470v-240h-1147l-453 -1010h1599l1 -240h-2010l667 1490h1343z" />
    <glyph glyph-name="Egrave" unicode="&#xc8;" 
d="M0 200v1100q0 200 200 200h1100q200 0 200 -200v-1100q0 -200 -200 -200h-1100q-200 0 -200 200zM1475 201v1099q0 175 -175 175h-1100q-174 0 -175 -175v-1100q1 -175 175 -175h1101q174 0 174 176z" />
    <glyph glyph-name="Eacute" unicode="&#xc9;" 
d="M0 200v1100q0 200 200 200h1100q200 0 200 -200v-1100q0 -200 -200 -200h-1100q-200 0 -200 200zM1475 201v1099q0 175 -175 175h-1100q-174 0 -175 -175v-1100q1 -175 175 -175h1101q174 0 174 176z" />
    <glyph glyph-name="Ecircumflex" unicode="&#xca;" 
d="M0 200v1100q0 200 200 200h1100q200 0 200 -200v-1100q0 -200 -200 -200h-1100q-200 0 -200 200zM1475 201v1099q0 175 -175 175h-1100q-174 0 -175 -175v-1100q1 -175 175 -175h1101q174 0 174 176z" />
    <glyph glyph-name="Edieresis" unicode="&#xcb;" horiz-adv-x="1950" 
d="M1725 -20h-1650v290h1650v-290zM725 1230v-30q0 -668 -624 -720h-126v240q500 0 500 480v270h850v-270q1 -480 500 -480l-1 -240h-125q-623 52 -624 720v30h-350z" />
    <glyph glyph-name="Igrave" unicode="&#xcc;" 
d="M0 200v1100q0 200 200 200h1100q200 0 200 -200v-1100q0 -200 -200 -200h-1100q-200 0 -200 200zM1475 201v1099q0 175 -175 175h-1100q-174 0 -175 -175v-1100q1 -175 175 -175h1101q174 0 174 176z" />
    <glyph glyph-name="Iacute" unicode="&#xcd;" 
d="M0 200v1100q0 200 200 200h1100q200 0 200 -200v-1100q0 -200 -200 -200h-1100q-200 0 -200 200zM1475 201v1099q0 175 -175 175h-1100q-174 0 -175 -175v-1100q1 -175 175 -175h1101q174 0 174 176z" />
    <glyph glyph-name="Icircumflex" unicode="&#xce;" 
d="M0 200v1100q0 200 200 200h1100q200 0 200 -200v-1100q0 -200 -200 -200h-1100q-200 0 -200 200zM1475 201v1099q0 175 -175 175h-1100q-174 0 -175 -175v-1100q1 -175 175 -175h1101q174 0 174 176z" />
    <glyph glyph-name="Idieresis" unicode="&#xcf;" 
d="M0 200v1100q0 200 200 200h1100q200 0 200 -200v-1100q0 -200 -200 -200h-1100q-200 0 -200 200zM1475 201v1099q0 175 -175 175h-1100q-174 0 -175 -175v-1100q1 -175 175 -175h1101q174 0 174 176z" />
    <glyph glyph-name="Eth" unicode="&#xd0;" horiz-adv-x="2050" 
d="M225 500q0 -280 125 -280h1150q125 0 125 280v105h-850v240h850v105q0 280 -125 280h-1150q-125 0 -125 -280v-450zM-25 950q0 466 272 520h1356q272 -54 272 -520v-450q0 -466 -272 -520h-1356q-272 54 -272 520v450z" />
    <glyph glyph-name="Ntilde" unicode="&#xd1;" horiz-adv-x="1550" 
d="M225 1230v-1250h-250v1490h1250v-240h-389l600 -1250h-278l-600 1250h-333z" />
    <glyph glyph-name="Ograve" unicode="&#xd2;" 
d="M0 200v1100q0 200 200 200h1100q200 0 200 -200v-1100q0 -200 -200 -200h-1100q-200 0 -200 200zM1475 201v1099q0 175 -175 175h-1100q-174 0 -175 -175v-1100q1 -175 175 -175h1101q174 0 174 176z" />
    <glyph glyph-name="Oacute" unicode="&#xd3;" 
d="M0 200v1100q0 200 200 200h1100q200 0 200 -200v-1100q0 -200 -200 -200h-1100q-200 0 -200 200zM1475 201v1099q0 175 -175 175h-1100q-174 0 -175 -175v-1100q1 -175 175 -175h1101q174 0 174 176z" />
    <glyph glyph-name="Ocircumflex" unicode="&#xd4;" 
d="M0 200v1100q0 200 200 200h1100q200 0 200 -200v-1100q0 -200 -200 -200h-1100q-200 0 -200 200zM1475 201v1099q0 175 -175 175h-1100q-174 0 -175 -175v-1100q1 -175 175 -175h1101q174 0 174 176z" />
    <glyph glyph-name="Otilde" unicode="&#xd5;" 
d="M0 200v1100q0 200 200 200h1100q200 0 200 -200v-1100q0 -200 -200 -200h-1100q-200 0 -200 200zM1475 201v1099q0 175 -175 175h-1100q-174 0 -175 -175v-1100q1 -175 175 -175h1101q174 0 174 176z" />
    <glyph glyph-name="Odieresis" unicode="&#xd6;" 
d="M0 200v1100q0 200 200 200h1100q200 0 200 -200v-1100q0 -200 -200 -200h-1100q-200 0 -200 200zM1475 201v1099q0 175 -175 175h-1100q-174 0 -175 -175v-1100q1 -175 175 -175h1101q174 0 174 176z" />
    <glyph glyph-name="multiply" unicode="&#xd7;" 
d="M0 200v1100q0 200 200 200h1100q200 0 200 -200v-1100q0 -200 -200 -200h-1100q-200 0 -200 200zM1475 201v1099q0 175 -175 175h-1100q-174 0 -175 -175v-1100q1 -175 175 -175h1101q174 0 174 176z" />
    <glyph glyph-name="Oslash" unicode="&#xd8;" 
d="M1150 220q125 0 125 280v450q0 280 -125 280h-325v240h428q272 -54 272 -520v-450q0 -466 -272 -520h-428v240h325zM350 1230q-125 0 -125 -280v-450q0 -280 125 -280h325v-240h-428q-272 54 -272 520v450q0 466 272 520h428v-240h-325z" />
    <glyph glyph-name="Ugrave" unicode="&#xd9;" 
d="M0 200v1100q0 200 200 200h1100q200 0 200 -200v-1100q0 -200 -200 -200h-1100q-200 0 -200 200zM1475 201v1099q0 175 -175 175h-1100q-174 0 -175 -175v-1100q1 -175 175 -175h1101q174 0 174 176z" />
    <glyph glyph-name="Uacute" unicode="&#xda;" 
d="M0 200v1100q0 200 200 200h1100q200 0 200 -200v-1100q0 -200 -200 -200h-1100q-200 0 -200 200zM1475 201v1099q0 175 -175 175h-1100q-174 0 -175 -175v-1100q1 -175 175 -175h1101q174 0 174 176z" />
    <glyph glyph-name="Ucircumflex" unicode="&#xdb;" 
d="M0 200v1100q0 200 200 200h1100q200 0 200 -200v-1100q0 -200 -200 -200h-1100q-200 0 -200 200zM1475 201v1099q0 175 -175 175h-1100q-174 0 -175 -175v-1100q1 -175 175 -175h1101q174 0 174 176z" />
    <glyph glyph-name="Udieresis" unicode="&#xdc;" 
d="M0 200v1100q0 200 200 200h1100q200 0 200 -200v-1100q0 -200 -200 -200h-1100q-200 0 -200 200zM1475 201v1099q0 175 -175 175h-1100q-174 0 -175 -175v-1100q1 -175 175 -175h1101q174 0 174 176z" />
    <glyph glyph-name="Yacute" unicode="&#xdd;" 
d="M0 200v1100q0 200 200 200h1100q200 0 200 -200v-1100q0 -200 -200 -200h-1100q-200 0 -200 200zM1475 201v1099q0 175 -175 175h-1100q-174 0 -175 -175v-1100q1 -175 175 -175h1101q174 0 174 176z" />
    <glyph glyph-name="Thorn" unicode="&#xde;" horiz-adv-x="1700" 
d="M706 605h-481v-625h-250v1490h250v-625h562l813 -865h-312z" />
    <glyph glyph-name="germandbls" unicode="&#xdf;" horiz-adv-x="2250" 
d="M625 1230v-200h-250v440h1710l-667 -1490h-1043v440h250v-200h597l453 1010h-1050zM225 420v-440h-250v440h250zM225 1470v-440h-250v440h250z" />
    <glyph glyph-name="agrave" unicode="&#xe0;" 
d="M0 200v1100q0 200 200 200h1100q200 0 200 -200v-1100q0 -200 -200 -200h-1100q-200 0 -200 200zM1475 201v1099q0 175 -175 175h-1100q-174 0 -175 -175v-1100q1 -175 175 -175h1101q174 0 174 176z" />
    <glyph glyph-name="aacute" unicode="&#xe1;" 
d="M0 200v1100q0 200 200 200h1100q200 0 200 -200v-1100q0 -200 -200 -200h-1100q-200 0 -200 200zM1475 201v1099q0 175 -175 175h-1100q-174 0 -175 -175v-1100q1 -175 175 -175h1101q174 0 174 176z" />
    <glyph glyph-name="acircumflex" unicode="&#xe2;" 
d="M0 200v1100q0 200 200 200h1100q200 0 200 -200v-1100q0 -200 -200 -200h-1100q-200 0 -200 200zM1475 201v1099q0 175 -175 175h-1100q-174 0 -175 -175v-1100q1 -175 175 -175h1101q174 0 174 176z" />
    <glyph glyph-name="atilde" unicode="&#xe3;" 
d="M0 200v1100q0 200 200 200h1100q200 0 200 -200v-1100q0 -200 -200 -200h-1100q-200 0 -200 200zM1475 201v1099q0 175 -175 175h-1100q-174 0 -175 -175v-1100q1 -175 175 -175h1101q174 0 174 176z" />
    <glyph glyph-name="adieresis" unicode="&#xe4;" 
d="M0 200v1100q0 200 200 200h1100q200 0 200 -200v-1100q0 -200 -200 -200h-1100q-200 0 -200 200zM1475 201v1099q0 175 -175 175h-1100q-174 0 -175 -175v-1100q1 -175 175 -175h1101q174 0 174 176z" />
    <glyph glyph-name="aring" unicode="&#xe5;" horiz-adv-x="1950" 
d="M225 805h-250v145q0 466 272 520h1306q272 -54 272 -520v-450q0 -466 -272 -520h-1306q-272 54 -272 520v145h250v-145q0 -280 125 -280h1100q125 0 125 280v105h-1000v240h1000v105q0 280 -125 280h-1100q-125 0 -125 -280v-145z" />
    <glyph glyph-name="ae" unicode="&#xe6;" horiz-adv-x="1950" 
d="M225 805h-250v145q0 466 272 520h1306q272 -54 272 -520v-450q0 -466 -272 -520h-1306q-272 54 -272 520v145h250v-145q0 -280 125 -280h1100q125 0 125 280v105h-1000v240h1000v105q0 280 -125 280h-1100q-125 0 -125 -280v-145z" />
    <glyph glyph-name="ccedilla" unicode="&#xe7;" horiz-adv-x="2150" 
d="M1318 1470l667 -1490h-2010l1 240h1599l-453 1010h-1147v240h1343z" />
    <glyph glyph-name="egrave" unicode="&#xe8;" 
d="M0 200v1100q0 200 200 200h1100q200 0 200 -200v-1100q0 -200 -200 -200h-1100q-200 0 -200 200zM1475 201v1099q0 175 -175 175h-1100q-174 0 -175 -175v-1100q1 -175 175 -175h1101q174 0 174 176z" />
    <glyph glyph-name="eacute" unicode="&#xe9;" 
d="M0 200v1100q0 200 200 200h1100q200 0 200 -200v-1100q0 -200 -200 -200h-1100q-200 0 -200 200zM1475 201v1099q0 175 -175 175h-1100q-174 0 -175 -175v-1100q1 -175 175 -175h1101q174 0 174 176z" />
    <glyph glyph-name="ecircumflex" unicode="&#xea;" 
d="M0 200v1100q0 200 200 200h1100q200 0 200 -200v-1100q0 -200 -200 -200h-1100q-200 0 -200 200zM1475 201v1099q0 175 -175 175h-1100q-174 0 -175 -175v-1100q1 -175 175 -175h1101q174 0 174 176z" />
    <glyph glyph-name="edieresis" unicode="&#xeb;" horiz-adv-x="1950" 
d="M75 270h1650v-290h-1650v290zM725 1230v-30q-1 -668 -624 -720h-125l-1 240q499 0 500 480v270h850v-270q0 -480 500 -480v-240h-126q-624 52 -624 720v30h-350z" />
    <glyph glyph-name="igrave" unicode="&#xec;" 
d="M0 200v1100q0 200 200 200h1100q200 0 200 -200v-1100q0 -200 -200 -200h-1100q-200 0 -200 200zM1475 201v1099q0 175 -175 175h-1100q-174 0 -175 -175v-1100q1 -175 175 -175h1101q174 0 174 176z" />
    <glyph glyph-name="iacute" unicode="&#xed;" 
d="M0 200v1100q0 200 200 200h1100q200 0 200 -200v-1100q0 -200 -200 -200h-1100q-200 0 -200 200zM1475 201v1099q0 175 -175 175h-1100q-174 0 -175 -175v-1100q1 -175 175 -175h1101q174 0 174 176z" />
    <glyph glyph-name="icircumflex" unicode="&#xee;" 
d="M0 200v1100q0 200 200 200h1100q200 0 200 -200v-1100q0 -200 -200 -200h-1100q-200 0 -200 200zM1475 201v1099q0 175 -175 175h-1100q-174 0 -175 -175v-1100q1 -175 175 -175h1101q174 0 174 176z" />
    <glyph glyph-name="idieresis" unicode="&#xef;" 
d="M0 200v1100q0 200 200 200h1100q200 0 200 -200v-1100q0 -200 -200 -200h-1100q-200 0 -200 200zM1475 201v1099q0 175 -175 175h-1100q-174 0 -175 -175v-1100q1 -175 175 -175h1101q174 0 174 176z" />
    <glyph glyph-name="eth" unicode="&#xf0;" horiz-adv-x="2050" 
d="M1625 950q0 280 -125 280h-1150q-125 0 -125 -280v-105h850v-240h-850v-105q0 -280 125 -280h1150q125 0 125 280v450zM1875 500q0 -466 -272 -520h-1356q-272 54 -272 520v450q0 466 272 520h1356q272 -54 272 -520v-450z" />
    <glyph glyph-name="ntilde" unicode="&#xf1;" horiz-adv-x="1550" 
d="M842 1230l-600 -1250h-278l600 1250h-389v240h1250v-1490h-250v1250h-333z" />
    <glyph glyph-name="ograve" unicode="&#xf2;" 
d="M0 200v1100q0 200 200 200h1100q200 0 200 -200v-1100q0 -200 -200 -200h-1100q-200 0 -200 200zM1475 201v1099q0 175 -175 175h-1100q-174 0 -175 -175v-1100q1 -175 175 -175h1101q174 0 174 176z" />
    <glyph glyph-name="oacute" unicode="&#xf3;" 
d="M0 200v1100q0 200 200 200h1100q200 0 200 -200v-1100q0 -200 -200 -200h-1100q-200 0 -200 200zM1475 201v1099q0 175 -175 175h-1100q-174 0 -175 -175v-1100q1 -175 175 -175h1101q174 0 174 176z" />
    <glyph glyph-name="ocircumflex" unicode="&#xf4;" 
d="M0 200v1100q0 200 200 200h1100q200 0 200 -200v-1100q0 -200 -200 -200h-1100q-200 0 -200 200zM1475 201v1099q0 175 -175 175h-1100q-174 0 -175 -175v-1100q1 -175 175 -175h1101q174 0 174 176z" />
    <glyph glyph-name="otilde" unicode="&#xf5;" 
d="M0 200v1100q0 200 200 200h1100q200 0 200 -200v-1100q0 -200 -200 -200h-1100q-200 0 -200 200zM1475 201v1099q0 175 -175 175h-1100q-174 0 -175 -175v-1100q1 -175 175 -175h1101q174 0 174 176z" />
    <glyph glyph-name="odieresis" unicode="&#xf6;" 
d="M0 200v1100q0 200 200 200h1100q200 0 200 -200v-1100q0 -200 -200 -200h-1100q-200 0 -200 200zM1475 201v1099q0 175 -175 175h-1100q-174 0 -175 -175v-1100q1 -175 175 -175h1101q174 0 174 176z" />
    <glyph glyph-name="divide" unicode="&#xf7;" 
d="M0 200v1100q0 200 200 200h1100q200 0 200 -200v-1100q0 -200 -200 -200h-1100q-200 0 -200 200zM1475 201v1099q0 175 -175 175h-1100q-174 0 -175 -175v-1100q1 -175 175 -175h1101q174 0 174 176z" />
    <glyph glyph-name="oslash" unicode="&#xf8;" 
d="M675 220v-240h-428q-272 54 -272 520v450q0 466 272 520h428v-240h-325q-125 0 -125 -280v-450q0 -280 125 -280h325zM825 1230v240h428q272 -54 272 -520v-450q0 -466 -272 -520h-428v240h325q125 0 125 280v450q0 280 -125 280h-325z" />
    <glyph glyph-name="ugrave" unicode="&#xf9;" 
d="M0 200v1100q0 200 200 200h1100q200 0 200 -200v-1100q0 -200 -200 -200h-1100q-200 0 -200 200zM1475 201v1099q0 175 -175 175h-1100q-174 0 -175 -175v-1100q1 -175 175 -175h1101q174 0 174 176z" />
    <glyph glyph-name="uacute" unicode="&#xfa;" 
d="M0 200v1100q0 200 200 200h1100q200 0 200 -200v-1100q0 -200 -200 -200h-1100q-200 0 -200 200zM1475 201v1099q0 175 -175 175h-1100q-174 0 -175 -175v-1100q1 -175 175 -175h1101q174 0 174 176z" />
    <glyph glyph-name="ucircumflex" unicode="&#xfb;" 
d="M0 200v1100q0 200 200 200h1100q200 0 200 -200v-1100q0 -200 -200 -200h-1100q-200 0 -200 200zM1475 201v1099q0 175 -175 175h-1100q-174 0 -175 -175v-1100q1 -175 175 -175h1101q174 0 174 176z" />
    <glyph glyph-name="udieresis" unicode="&#xfc;" 
d="M0 200v1100q0 200 200 200h1100q200 0 200 -200v-1100q0 -200 -200 -200h-1100q-200 0 -200 200zM1475 201v1099q0 175 -175 175h-1100q-174 0 -175 -175v-1100q1 -175 175 -175h1101q174 0 174 176z" />
    <glyph glyph-name="yacute" unicode="&#xfd;" 
d="M0 200v1100q0 200 200 200h1100q200 0 200 -200v-1100q0 -200 -200 -200h-1100q-200 0 -200 200zM1475 201v1099q0 175 -175 175h-1100q-174 0 -175 -175v-1100q1 -175 175 -175h1101q174 0 174 176z" />
    <glyph glyph-name="thorn" unicode="&#xfe;" horiz-adv-x="1700" 
d="M262 -20h-312l813 865h562v625h250v-1490h-250v625h-481z" />
    <glyph glyph-name="ydieresis" unicode="&#xff;" 
d="M0 200v1100q0 200 200 200h1100q200 0 200 -200v-1100q0 -200 -200 -200h-1100q-200 0 -200 200zM1475 201v1099q0 175 -175 175h-1100q-174 0 -175 -175v-1100q1 -175 175 -175h1101q174 0 174 176z" />
    <glyph glyph-name="dotlessi" unicode="&#x131;" 
d="M0 200v1100q0 200 200 200h1100q200 0 200 -200v-1100q0 -200 -200 -200h-1100q-200 0 -200 200zM1475 201v1099q0 175 -175 175h-1100q-174 0 -175 -175v-1100q1 -175 175 -175h1101q174 0 174 176z" />
    <glyph glyph-name="circumflex" unicode="&#x2c6;" 
d="M0 200v1100q0 200 200 200h1100q200 0 200 -200v-1100q0 -200 -200 -200h-1100q-200 0 -200 200zM1475 201v1099q0 175 -175 175h-1100q-174 0 -175 -175v-1100q1 -175 175 -175h1101q174 0 174 176z" />
    <glyph glyph-name="caron" unicode="&#x2c7;" 
d="M0 200v1100q0 200 200 200h1100q200 0 200 -200v-1100q0 -200 -200 -200h-1100q-200 0 -200 200zM1475 201v1099q0 175 -175 175h-1100q-174 0 -175 -175v-1100q1 -175 175 -175h1101q174 0 174 176z" />
    <glyph glyph-name="uni02C9" unicode="&#x2c9;" 
d="M0 200v1100q0 200 200 200h1100q200 0 200 -200v-1100q0 -200 -200 -200h-1100q-200 0 -200 200zM1475 201v1099q0 175 -175 175h-1100q-174 0 -175 -175v-1100q1 -175 175 -175h1101q174 0 174 176z" />
    <glyph glyph-name="breve" unicode="&#x2d8;" 
d="M0 200v1100q0 200 200 200h1100q200 0 200 -200v-1100q0 -200 -200 -200h-1100q-200 0 -200 200zM1475 201v1099q0 175 -175 175h-1100q-174 0 -175 -175v-1100q1 -175 175 -175h1101q174 0 174 176z" />
    <glyph glyph-name="dotaccent" unicode="&#x2d9;" 
d="M0 200v1100q0 200 200 200h1100q200 0 200 -200v-1100q0 -200 -200 -200h-1100q-200 0 -200 200zM1475 201v1099q0 175 -175 175h-1100q-174 0 -175 -175v-1100q1 -175 175 -175h1101q174 0 174 176z" />
    <glyph glyph-name="ring" unicode="&#x2da;" 
d="M0 200v1100q0 200 200 200h1100q200 0 200 -200v-1100q0 -200 -200 -200h-1100q-200 0 -200 200zM1475 201v1099q0 175 -175 175h-1100q-174 0 -175 -175v-1100q1 -175 175 -175h1101q174 0 174 176z" />
    <glyph glyph-name="ogonek" unicode="&#x2db;" 
d="M0 200v1100q0 200 200 200h1100q200 0 200 -200v-1100q0 -200 -200 -200h-1100q-200 0 -200 200zM1475 201v1099q0 175 -175 175h-1100q-174 0 -175 -175v-1100q1 -175 175 -175h1101q174 0 174 176z" />
    <glyph glyph-name="tilde" unicode="&#x2dc;" 
d="M0 200v1100q0 200 200 200h1100q200 0 200 -200v-1100q0 -200 -200 -200h-1100q-200 0 -200 200zM1475 201v1099q0 175 -175 175h-1100q-174 0 -175 -175v-1100q1 -175 175 -175h1101q174 0 174 176z" />
    <glyph glyph-name="hungarumlaut" unicode="&#x2dd;" 
d="M0 200v1100q0 200 200 200h1100q200 0 200 -200v-1100q0 -200 -200 -200h-1100q-200 0 -200 200zM1475 201v1099q0 175 -175 175h-1100q-174 0 -175 -175v-1100q1 -175 175 -175h1101q174 0 174 176z" />
    <glyph glyph-name="endash" unicode="&#x2013;" horiz-adv-x="1250" 
d="M1125 605h-1150v240h1150v-240z" />
    <glyph glyph-name="emdash" unicode="&#x2014;" horiz-adv-x="1250" 
d="M1125 605h-1150v240h1150v-240z" />
    <glyph glyph-name="quoteleft" unicode="&#x2018;" horiz-adv-x="550" 
d="M425 1670v-240h-200v-550h-250v790h450z" />
    <glyph glyph-name="quoteright" unicode="&#x2019;" horiz-adv-x="550" 
d="M425 1670v-790h-250v550h-200v240h450z" />
    <glyph glyph-name="quotesinglbase" unicode="&#x201a;" 
d="M0 200v1100q0 200 200 200h1100q200 0 200 -200v-1100q0 -200 -200 -200h-1100q-200 0 -200 200zM1475 201v1099q0 175 -175 175h-1100q-174 0 -175 -175v-1100q1 -175 175 -175h1101q174 0 174 176z" />
    <glyph glyph-name="quotedblleft" unicode="&#x201c;" horiz-adv-x="1000" 
d="M612 680l-659 790h285l387 -464v464h250v-790h-263z" />
    <glyph glyph-name="quotedblright" unicode="&#x201d;" horiz-adv-x="1000" 
d="M-25 680v790h250v-464l387 464h285l-659 -790h-263z" />
    <glyph glyph-name="quotedblbase" unicode="&#x201e;" 
d="M0 200v1100q0 200 200 200h1100q200 0 200 -200v-1100q0 -200 -200 -200h-1100q-200 0 -200 200zM1475 201v1099q0 175 -175 175h-1100q-174 0 -175 -175v-1100q1 -175 175 -175h1101q174 0 174 176z" />
    <glyph glyph-name="dagger" unicode="&#x2020;" 
d="M0 200v1100q0 200 200 200h1100q200 0 200 -200v-1100q0 -200 -200 -200h-1100q-200 0 -200 200zM1475 201v1099q0 175 -175 175h-1100q-174 0 -175 -175v-1100q1 -175 175 -175h1101q174 0 174 176z" />
    <glyph glyph-name="daggerdbl" unicode="&#x2021;" 
d="M0 200v1100q0 200 200 200h1100q200 0 200 -200v-1100q0 -200 -200 -200h-1100q-200 0 -200 200zM1475 201v1099q0 175 -175 175h-1100q-174 0 -175 -175v-1100q1 -175 175 -175h1101q174 0 174 176z" />
    <glyph glyph-name="bullet" unicode="&#x2022;" 
d="M0 200v1100q0 200 200 200h1100q200 0 200 -200v-1100q0 -200 -200 -200h-1100q-200 0 -200 200zM1475 201v1099q0 175 -175 175h-1100q-174 0 -175 -175v-1100q1 -175 175 -175h1101q174 0 174 176z" />
    <glyph glyph-name="ellipsis" unicode="&#x2026;" 
d="M0 200v1100q0 200 200 200h1100q200 0 200 -200v-1100q0 -200 -200 -200h-1100q-200 0 -200 200zM1475 201v1099q0 175 -175 175h-1100q-174 0 -175 -175v-1100q1 -175 175 -175h1101q174 0 174 176z" />
    <glyph glyph-name="guilsinglleft" unicode="&#x2039;" 
d="M0 200v1100q0 200 200 200h1100q200 0 200 -200v-1100q0 -200 -200 -200h-1100q-200 0 -200 200zM1475 201v1099q0 175 -175 175h-1100q-174 0 -175 -175v-1100q1 -175 175 -175h1101q174 0 174 176z" />
    <glyph glyph-name="guilsinglright" unicode="&#x203a;" 
d="M0 200v1100q0 200 200 200h1100q200 0 200 -200v-1100q0 -200 -200 -200h-1100q-200 0 -200 200zM1475 201v1099q0 175 -175 175h-1100q-174 0 -175 -175v-1100q1 -175 175 -175h1101q174 0 174 176z" />
    <glyph glyph-name="fraction" unicode="&#x2044;" 
d="M0 200v1100q0 200 200 200h1100q200 0 200 -200v-1100q0 -200 -200 -200h-1100q-200 0 -200 200zM1475 201v1099q0 175 -175 175h-1100q-174 0 -175 -175v-1100q1 -175 175 -175h1101q174 0 174 176z" />
    <glyph glyph-name="fraction" unicode="&#x2215;" 
d="M0 200v1100q0 200 200 200h1100q200 0 200 -200v-1100q0 -200 -200 -200h-1100q-200 0 -200 200zM1475 201v1099q0 175 -175 175h-1100q-174 0 -175 -175v-1100q1 -175 175 -175h1101q174 0 174 176z" />
    <glyph glyph-name="franc" unicode="&#x20a3;" horiz-adv-x="1550" 
d="M175 1031h-200v239h200v200h250v-200h150v200h250v-200h600v-225l-761 -1065h-307l750 1050h-282v-200h-250v200l-150 1v-201h-250v201z" />
    <glyph glyph-name="lira" unicode="&#x20a4;" horiz-adv-x="1550" 
d="M175 1031h-200v239h200v200h250v-200h150v200h250v-200h600v-225l-761 -1065h-307l750 1050h-282v-200h-250v200l-150 1v-201h-250v201z" />
    <glyph glyph-name="peseta" unicode="&#x20a7;" horiz-adv-x="1550" 
d="M175 1031h-200v239h200v200h250v-200h150v200h250v-200h600v-225l-761 -1065h-307l750 1050h-282v-200h-250v200l-150 1v-201h-250v201z" />
    <glyph glyph-name="Euro" unicode="&#x20ac;" 
d="M675 1370h150v100h250v-100h176q274 -27 274 -390h-250q0 150 -125 150h-75v-210h176q274 -27 274 -390h-250q0 150 -125 150h-75v-360h75q125 0 125 150h250q0 -363 -274 -390h-176v-100h-250v100h-150v-100h-250v100h-176q-274 27 -274 390h250q0 -150 125 -150h75v360
h-75q-125 0 -125 -150h-250q0 363 274 390h176v210h-75q-125 0 -125 -150h-250q0 363 274 390h176v100h250v-100zM675 320h150v360h-150v-360zM825 1130h-150v-210h150v210z" />
    <glyph glyph-name="uni2116" unicode="&#x2116;" 
d="M0 200v1100q0 200 200 200h1100q200 0 200 -200v-1100q0 -200 -200 -200h-1100q-200 0 -200 200zM1475 201v1099q0 175 -175 175h-1100q-174 0 -175 -175v-1100q1 -175 175 -175h1101q174 0 174 176z" />
    <glyph glyph-name="trademark" unicode="&#x2122;" 
d="M0 200v1100q0 200 200 200h1100q200 0 200 -200v-1100q0 -200 -200 -200h-1100q-200 0 -200 200zM1475 201v1099q0 175 -175 175h-1100q-174 0 -175 -175v-1100q1 -175 175 -175h1101q174 0 174 176z" />
    <glyph glyph-name="partialdiff" unicode="&#x2202;" 
d="M0 200v1100q0 200 200 200h1100q200 0 200 -200v-1100q0 -200 -200 -200h-1100q-200 0 -200 200zM1475 201v1099q0 175 -175 175h-1100q-174 0 -175 -175v-1100q1 -175 175 -175h1101q174 0 174 176z" />
    <glyph glyph-name="Delta" unicode="&#x2206;" 
d="M0 200v1100q0 200 200 200h1100q200 0 200 -200v-1100q0 -200 -200 -200h-1100q-200 0 -200 200zM1475 201v1099q0 175 -175 175h-1100q-174 0 -175 -175v-1100q1 -175 175 -175h1101q174 0 174 176z" />
    <glyph glyph-name="product" unicode="&#x220f;" 
d="M0 200v1100q0 200 200 200h1100q200 0 200 -200v-1100q0 -200 -200 -200h-1100q-200 0 -200 200zM1475 201v1099q0 175 -175 175h-1100q-174 0 -175 -175v-1100q1 -175 175 -175h1101q174 0 174 176z" />
    <glyph glyph-name="summation" unicode="&#x2211;" 
d="M0 200v1100q0 200 200 200h1100q200 0 200 -200v-1100q0 -200 -200 -200h-1100q-200 0 -200 200zM1475 201v1099q0 175 -175 175h-1100q-174 0 -175 -175v-1100q1 -175 175 -175h1101q174 0 174 176z" />
    <glyph glyph-name="minus" unicode="&#x2212;" horiz-adv-x="1250" 
d="M1125 605h-1150v240h1150v-240z" />
    <glyph glyph-name="radical" unicode="&#x221a;" 
d="M0 200v1100q0 200 200 200h1100q200 0 200 -200v-1100q0 -200 -200 -200h-1100q-200 0 -200 200zM1475 201v1099q0 175 -175 175h-1100q-174 0 -175 -175v-1100q1 -175 175 -175h1101q174 0 174 176z" />
    <glyph glyph-name="infinity" unicode="&#x221e;" 
d="M0 200v1100q0 200 200 200h1100q200 0 200 -200v-1100q0 -200 -200 -200h-1100q-200 0 -200 200zM1475 201v1099q0 175 -175 175h-1100q-174 0 -175 -175v-1100q1 -175 175 -175h1101q174 0 174 176z" />
    <glyph glyph-name="integral" unicode="&#x222b;" 
d="M0 200v1100q0 200 200 200h1100q200 0 200 -200v-1100q0 -200 -200 -200h-1100q-200 0 -200 200zM1475 201v1099q0 175 -175 175h-1100q-174 0 -175 -175v-1100q1 -175 175 -175h1101q174 0 174 176z" />
    <glyph glyph-name="approxequal" unicode="&#x2248;" 
d="M0 200v1100q0 200 200 200h1100q200 0 200 -200v-1100q0 -200 -200 -200h-1100q-200 0 -200 200zM1475 201v1099q0 175 -175 175h-1100q-174 0 -175 -175v-1100q1 -175 175 -175h1101q174 0 174 176z" />
    <glyph glyph-name="lessequal" unicode="&#x2264;" 
d="M0 200v1100q0 200 200 200h1100q200 0 200 -200v-1100q0 -200 -200 -200h-1100q-200 0 -200 200zM1475 201v1099q0 175 -175 175h-1100q-174 0 -175 -175v-1100q1 -175 175 -175h1101q174 0 174 176z" />
    <glyph glyph-name="greaterequal" unicode="&#x2265;" 
d="M0 200v1100q0 200 200 200h1100q200 0 200 -200v-1100q0 -200 -200 -200h-1100q-200 0 -200 200zM1475 201v1099q0 175 -175 175h-1100q-174 0 -175 -175v-1100q1 -175 175 -175h1101q174 0 174 176z" />
    <glyph glyph-name="uniF001" unicode="&#xf001;" horiz-adv-x="1073" 
 />
    <glyph glyph-name="uniF001" unicode="&#xfb01;" horiz-adv-x="1073" 
 />
    <glyph glyph-name="uniF002" unicode="&#xf002;" horiz-adv-x="1081" 
 />
    <glyph glyph-name="uniF002" unicode="&#xfb02;" horiz-adv-x="1081" 
 />
    </font>
</defs>
</svg>
