<?xml version="1.0" standalone="no"?>
<!DOCTYPE svg PUBLIC "-//W3C//DTD SVG 20010904//EN"
 "http://www.w3.org/TR/2001/REC-SVG-20010904/DTD/svg10.dtd">
<svg version="1.0" xmlns="http://www.w3.org/2000/svg"
 width="400.000000pt" height="400.000000pt" viewBox="0 0 400.000000 400.000000"
 preserveAspectRatio="xMidYMid meet">
<metadata>
Created by potrace 1.14, written by Peter Selinger 2001-2017
</metadata>
<g transform="translate(0.000000,400.000000) scale(0.100000,-0.100000)"
fill="#000000" stroke="none">
<path d="M1849 3846 c-2 -2 -26 -7 -54 -10 -182 -21 -451 -98 -584 -166 -23
-11 -41 -18 -41 -14 0 4 -7 0 -16 -7 -17 -14 -48 -33 -74 -45 -8 -4 -40 -24
-70 -44 -188 -123 -335 -255 -451 -405 -57 -72 -149 -203 -149 -210 0 -2 -14
-28 -31 -57 -63 -107 -150 -338 -173 -458 -2 -14 -11 -56 -20 -95 -26 -117
-27 -134 -31 -305 -3 -181 6 -262 51 -455 69 -296 167 -496 365 -745 194 -244
483 -451 778 -559 78 -29 241 -72 320 -86 19 -3 37 -8 41 -10 29 -18 390 -27
500 -12 149 20 397 87 521 140 123 53 282 144 359 204 223 175 318 276 457
483 69 103 108 176 159 302 39 94 101 314 118 418 28 166 29 444 1 576 -18 88
-50 221 -67 279 -101 342 -348 690 -643 907 -44 33 -88 66 -98 74 -9 8 -20 14
-22 14 -3 0 -24 12 -48 27 -87 56 -230 122 -347 159 -78 26 -296 79 -365 89
-46 7 -381 16 -386 11z m309 -247 c260 -28 509 -114 707 -243 l70 -46 -613 0
-613 0 -139 -72 c-77 -40 -139 -75 -139 -78 0 -3 155 -138 345 -300 l344 -295
60 -151 c33 -83 60 -154 60 -156 0 -12 -125 -39 -154 -34 -18 4 -46 2 -62 -4
-25 -9 -39 -6 -94 21 -163 79 -366 79 -532 -1 -170 -80 -303 -247 -344 -430
-10 -42 -24 -76 -37 -88 l-22 -21 -115 187 c-63 102 -179 289 -257 415 l-142
229 19 48 c147 374 425 680 775 854 280 140 588 198 883 165z m1280 -881 c58
-116 113 -275 137 -392 17 -85 41 -294 34 -300 -5 -6 -369 -39 -373 -35 -1 2
-19 44 -40 93 -42 98 -41 101 27 112 20 4 37 11 37 16 0 6 -32 82 -72 169 -54
121 -75 158 -87 155 -9 -3 -34 -7 -57 -11 l-41 -6 -37 86 c-21 48 -36 89 -34
91 4 3 430 120 449 123 4 1 29 -45 57 -101z m-1407 -955 c31 -30 42 -50 51
-93 10 -49 9 -60 -10 -102 -67 -153 -275 -94 -277 78 0 38 6 60 21 81 34 46
82 73 131 73 37 0 50 -6 84 -37z m434 -163 c8 -107 24 -300 34 -428 11 -128
21 -235 23 -237 1 -2 39 1 83 5 114 13 300 12 434 -1 169 -17 166 -12 73 -101
-233 -222 -515 -366 -837 -426 -124 -23 -426 -23 -550 0 -329 62 -610 207
-850 439 -86 83 -110 125 -46 80 l29 -21 184 64 184 64 25 -29 24 -29 90 39
c81 35 95 38 135 31 25 -5 90 -9 146 -10 123 0 224 24 327 77 97 50 220 173
265 265 38 77 72 203 72 263 0 40 4 46 67 98 38 30 69 55 70 53 1 -1 9 -89 18
-196z"/>
</g>
</svg>
